<svg xmlns="http://www.w3.org/2000/svg" viewBox="0 0 24 24" width="24" height="24"> <defs> <linearGradient id="grad-2zbm3mlat" x1="0%" y1="0%" x2="200%" y2="200%"> <stop offset="0%" stop-color="#10b981"> <animate attributeName="stop-color" values="#10b981;#34d399;#10b981" dur="4s" repeatCount="indefinite" /> </stop> <stop offset="50%" stop-color="#34d399"> <animate attributeName="stop-color" values="#34d399;#6ee7b7;#34d399" dur="4s" repeatCount="indefinite" /> </stop> <stop offset="100%" stop-color="#6ee7b7"> <animate attributeName="stop-color" values="#6ee7b7;#10b981;#6ee7b7" dur="4s" repeatCount="indefinite" /> </stop> <animate attributeName="x1" values="0%;100%;0%" dur="10s" repeatCount="indefinite" /> <animate attributeName="x2" values="100%;200%;100%" dur="10s" repeatCount="indefinite" /> </linearGradient> </defs> <g fill="none" stroke="url(#grad-2zbm3mlat)" stroke-width="2" stroke-linecap="round" stroke-linejoin="round"> <g transform-origin="12 12"> <path d="M12 12m-9 0a9 9 0 1 0 18 0a9 9 0 1 0 -18 0" opacity="0.3"/> <path d="M17.8 20.8a6 6 0 0 1-2.4-7.4 3 3 0 0 0-3.6-3.6 6 6 0 0 1-7.4 2.4"> </path> <path d="M6.2 3.2a6 6 0 0 1 2.4 7.4 3 3 0 0 0 3.6 3.6 6 6 0 0 1 7.4-2.4"> </path> <animateTransform attributeName="transform" type="rotate" from="0" to="360" dur="3s" repeatCount="indefinite" /> </g> </g> </svg>
